<svg width="60" height="60" viewBox="0 0 60 60" fill="none" xmlns="http://www.w3.org/2000/svg">
<path d="M41.4787 18.825C41.49 18.825 41.505 18.825 41.52 18.825C41.9119 18.825 42.2756 18.9469 42.5737 19.1569L42.5681 19.1531C42.7856 19.3425 42.9319 19.6088 42.9675 19.9088V19.9144C43.005 20.1431 43.0256 20.4056 43.0256 20.6738C43.0256 20.7956 43.0219 20.9156 43.0125 21.0356V21.0188C42.5906 25.4606 40.7606 36.2325 39.8306 41.205C39.4369 43.3106 38.6625 44.0156 37.9125 44.0831C36.2831 44.235 35.0456 43.0069 33.4669 41.9719C30.9956 40.35 29.5987 39.3413 27.2006 37.7606C24.4275 35.9363 26.2256 34.9294 27.8044 33.2906C28.2187 32.8594 35.4019 26.325 35.5425 25.7325C35.55 25.6969 35.5537 25.6575 35.5537 25.6163C35.5537 25.47 35.4994 25.3369 35.4112 25.2356C35.3137 25.1719 35.1919 25.1363 35.0644 25.1363C34.98 25.1363 34.8994 25.1531 34.8244 25.1813L34.8281 25.1794C34.5806 25.2356 30.6331 27.8444 22.9856 33.0056C22.1512 33.6638 21.0975 34.08 19.95 34.1288H19.9387C18.3131 33.9319 16.8375 33.57 15.4369 33.0544L15.5756 33.0994C13.8169 32.5256 12.42 32.2237 12.54 31.2525C12.6037 30.7475 13.3 30.2306 14.6287 29.7019C22.8137 26.1356 28.2719 23.785 31.0031 22.65C34.0162 21.0506 37.5094 19.7344 41.1825 18.8813L41.4769 18.8231L41.4787 18.825ZM29.8687 1.92188C14.3025 1.95937 1.69687 14.5875 1.69687 30.1594C1.69687 45.7537 14.3381 58.3969 29.9344 58.3969C45.5306 58.3969 58.1719 45.7556 58.1719 30.1594C58.1719 14.5875 45.5662 1.95937 30.0037 1.92188H30C29.9562 1.92188 29.9125 1.92188 29.8687 1.92188Z" fill="white"/>
</svg>
