<svg width="60" height="60" viewBox="0 0 60 60" fill="none" xmlns="http://www.w3.org/2000/svg">
<path d="M47.2819 42.0038H43.1962C41.6494 42.0038 41.1712 40.7737 38.3925 37.9575C35.9719 35.6137 34.9012 35.2988 34.3069 35.2988C33.4725 35.2988 33.2344 35.5369 33.2344 36.6881V40.3781C33.2344 41.3719 32.9175 41.9663 30.2981 41.9663C25.0144 41.6119 20.4731 38.73 17.8369 34.53L17.7975 34.4644C14.7375 30.6638 12.4819 26.0831 11.3662 21.0731L11.325 20.8537C11.325 20.2594 11.5631 19.7025 12.7144 19.7025H16.8C17.8312 19.7025 18.2287 20.1788 18.6281 21.2888C20.6494 27.1238 24.0244 32.2425 25.4137 32.2425C25.9294 32.2425 26.1675 32.0044 26.1675 30.6956V24.66C26.0081 21.8813 24.54 21.645 24.54 20.6531C24.5569 20.1225 24.9919 19.6987 25.5244 19.6987C25.5412 19.6987 25.5562 19.6988 25.5731 19.7006H25.5712H32.0006C32.8744 19.7006 33.1912 20.1769 33.1912 21.2081V29.3456C33.1912 30.2175 33.5887 30.5362 33.8269 30.5362C34.3425 30.5362 34.7812 30.2175 35.7319 29.2669C37.7081 26.8538 39.3975 24.0937 40.6856 21.1181L40.7719 20.8931C41.0437 20.2125 41.6962 19.74 42.4594 19.74C42.495 19.74 42.5287 19.7419 42.5644 19.7437H42.5587H46.6444C47.8744 19.7437 48.1537 20.3756 47.8744 21.2512C46.2356 24.8606 44.3944 27.9619 42.2606 30.8344L42.3581 30.6956C41.9231 31.41 41.7637 31.7269 42.3581 32.5238C42.7931 33.1181 44.2237 34.3481 45.1762 35.46C46.5544 36.8231 47.7094 38.4094 48.5812 40.1606L48.6281 40.2638C49.0256 41.4113 48.4294 42.0075 47.2781 42.0075L47.2819 42.0038ZM38.6325 1.8825H21.3694C5.61374 1.8825 1.88437 5.61188 1.88437 21.3675V38.6306C1.88437 54.3863 5.61374 58.1156 21.3694 58.1156H38.6325C54.3881 58.1156 58.1175 54.3863 58.1175 38.6306V21.3675C58.1175 5.61188 54.3469 1.8825 38.6325 1.8825Z" fill="white"/>
</svg>
